# xmcd
#
# Track frame offsets:
#	150
#	20453
#	33967
#	57428
#	71349
#	96732
#	113103
#	124022
#	141420
#	156130
#	167896
#	178619
#	189868
#	204749
#	218003
#	232295
#	248632
#
# Disc length: 3525 seconds
# Revision: 0
# Processed by: cddbd v1.5.2PL0 Copyright (c) Steve Scherf et al.
# Submitted via: dBpowerAMP V12.0
#
DISCID=f70dc311
DTITLE=Travis Scott - ASTROWORLD
DYEAR=2018
DGENRE=Rap
TTITLE0=STARGAZING
TTITLE1=CAROUSEL (feat. Frank Ocean)
TTITLE2=SICKO MODE (feat. Big Hawk, Drake and Swae Lee)
TTITLE3=R.I.P. SCREW (feat. Swae Lee)
TTITLE4=STOP TRYING TO BE GOD (feat. James Blake, Kid Cudi, Philip Bailey and Stevie Wonder)
TTITLE5=NO BYSTANDERS (feat. Juice WRLD and Sheck Wes)
TTITLE6=SKELETONS (fest. Pharrell Williams, Tame Impala and The Weeknd)
TTITLE7=WAKE UP (feat. The Weeknd)
TTITLE8=5% TINT
TTITLE9=NC-17 (feat. 21 Savage)
TTITLE10=ASTROTHUNDER (feat. John Mayer and Thundercat)
TTITLE11=YOSEMITE (feat. Gunna and NAV)
TTITLE12=CAN'T SAY (feat. Don Toliver)
TTITLE13=WHO? WHAT! (feat Quavo and Takeoff)
TTITLE14=BUTTERFLY EFFECT
TTITLE15=HOUSTONFORNICATION
TTITLE16=COFFEE BEAN
EXTD=
EXTT0=
EXTT1=
EXTT2=
EXTT3=
EXTT4=
EXTT5=
EXTT6=
EXTT7=
EXTT8=
EXTT9=
EXTT10=
EXTT11=
EXTT12=
EXTT13=
EXTT14=
EXTT15=
EXTT16=
PLAYORDER=
